HIERARCHY
ROOT joint_Root
{
	OFFSET 0.0 0.0 0.0
	CHANNELS 6 Xposition Yposition Zposition Zrotation Xrotation Yrotation 
	JOINT Hips
	{
		OFFSET -0.726466 93.3139 -2.00062
		CHANNELS 6 Xposition Yposition Zposition Zrotation Xrotation Yrotation 
		JOINT Spine
		{
			OFFSET 15.7357 0.0 0.0
			CHANNELS 6 Xposition Yposition Zposition Zrotation Xrotation Yrotation 
			JOINT Chest
			{
				OFFSET 8.98455 -0.406207 0.0
				CHANNELS 6 Xposition Yposition Zposition Zrotation Xrotation Yrotation 
				JOINT Neck
				{
					OFFSET 16.3773 0.0 0.0
					CHANNELS 6 Xposition Yposition Zposition Zrotation Xrotation Yrotation 
					JOINT Head
					{
						OFFSET 6.45672 0.0 0.0
						CHANNELS 6 Xposition Yposition Zposition Zrotation Xrotation Yrotation 
						End Site
						{
							OFFSET 0.0 0.0 0.0
						}
					}
				}
				JOINT Shoulder_L
				{
					OFFSET 12.9942 -0.242716 4.98039
					CHANNELS 6 Xposition Yposition Zposition Zrotation Xrotation Yrotation 
					JOINT UpperArm_L
					{
						OFFSET 5.34809 0.0 0.0
						CHANNELS 6 Xposition Yposition Zposition Zrotation Xrotation Yrotation 
						JOINT LowerArm_L
						{
							OFFSET 24.3286 1.87007e-05 0.0
							CHANNELS 6 Xposition Yposition Zposition Zrotation Xrotation Yrotation 
							JOINT Hand_L
							{
								OFFSET 22.2916 0.0 0.0
								CHANNELS 6 Xposition Yposition Zposition Zrotation Xrotation Yrotation 
								End Site
								{
									OFFSET 0.0 0.0 0.0
								}
							}
						}
					}
				}
				JOINT Shoulder_R
				{
					OFFSET 12.9945 -0.242716 -4.98039
					CHANNELS 6 Xposition Yposition Zposition Zrotation Xrotation Yrotation 
					JOINT UpperArm_R
					{
						OFFSET -5.34813 0.0 0.0
						CHANNELS 6 Xposition Yposition Zposition Zrotation Xrotation Yrotation 
						JOINT LowerArm_R
						{
							OFFSET -24.3289 0.000322201 0.0
							CHANNELS 6 Xposition Yposition Zposition Zrotation Xrotation Yrotation 
							JOINT Hand_R
							{
								OFFSET -22.2915 -0.000108084 0.0
								CHANNELS 6 Xposition Yposition Zposition Zrotation Xrotation Yrotation 
								End Site
								{
									OFFSET 0.0 0.0 0.0
								}
							}
						}
					}
				}
			}
		}
		JOINT UpperLeg_L
		{
			OFFSET -2.19248 -6.46944 0.0
			CHANNELS 6 Xposition Yposition Zposition Zrotation Xrotation Yrotation 
			JOINT LowerLeg_L
			{
				OFFSET 39.0811 0.0 -1.23785e-05
				CHANNELS 6 Xposition Yposition Zposition Zrotation Xrotation Yrotation 
				JOINT Foot_L
				{
					OFFSET 40.9854 0.0 -1.26872e-05
					CHANNELS 6 Xposition Yposition Zposition Zrotation Xrotation Yrotation 
					JOINT Toes_L
					{
						OFFSET 11.7543 0.0 0.0
						CHANNELS 6 Xposition Yposition Zposition Zrotation Xrotation Yrotation 
						End Site
						{
							OFFSET 0.0 0.0 0.0
						}
					}
				}
			}
		}
		JOINT UpperLeg_R
		{
			OFFSET -2.19251 6.46944 0.0
			CHANNELS 6 Xposition Yposition Zposition Zrotation Xrotation Yrotation 
			JOINT LowerLeg_R
			{
				OFFSET -39.0811 -0.00228153 -0.0401928
				CHANNELS 6 Xposition Yposition Zposition Zrotation Xrotation Yrotation 
				JOINT Foot_R
				{
					OFFSET -40.9854 0.0 0.0
					CHANNELS 6 Xposition Yposition Zposition Zrotation Xrotation Yrotation 
					JOINT Toes_R
					{
						OFFSET -11.7543 0.0 0.0
						CHANNELS 6 Xposition Yposition Zposition Zrotation Xrotation Yrotation 
						End Site
						{
							OFFSET 0.0 0.0 0.0
						}
					}
				}
			}
		}
	}
}
MOTION
Frames:	8
Frame Time:	0.0333333
0.000000 0.000000 0.000000 0.000000 0.000000 -0.000000 -2.178060 92.909500 -1.082510 89.848100 2.705900 2.751380 15.735700 0.000005 -0.000001 92.933500 87.098400 -92.141000 8.984550 -0.406207 -0.000000 -1.971610 0.229580 1.588810 16.377300 -0.000001 -0.000001 3.735430 -3.471280 1.761520 6.456720 -0.000001 -0.000000 7.093850 -3.868260 -3.629380 12.994200 -0.242716 4.980390 -89.387600 -1.981720 -72.823500 5.348090 -0.000007 -0.000001 -82.159100 -31.842200 -72.851200 24.328600 0.000019 0.000005 6.986120 -2.381040 -108.729000 22.291600 -0.000001 0.000005 16.432300 5.537800 -8.143010 12.994500 -0.242716 -4.980390 87.695200 7.450340 -72.756100 -5.348130 -0.000001 -0.000004 -63.908800 39.958600 -9.833940 -24.328900 0.000322 -0.000009 3.404370 9.685900 -19.477700 -22.291500 -0.000108 -0.000004 6.654150 5.353990 -1.497480 -2.192480 -6.469440 -0.000000 -176.598000 -4.962450 -1.864150 39.081100 -0.000007 -0.000012 -0.057980 0.194533 16.596500 40.985400 -0.000006 -0.000013 -0.771607 6.664680 -62.294700 11.754300 -0.000000 0.000003 -0.000001 -0.000018 -16.578200 -2.192510 6.469440 -0.000001 179.714000 11.603400 -179.867000 -39.081100 -0.002282 -0.040193 -0.054352 0.208161 15.488000 -40.985400 0.000008 0.000006 1.923830 3.910330 -63.339300 -11.754300 -0.000006 -0.000006 -0.006382 -0.074268 -19.596000
0.000000 0.000000 0.000000 0.000000 0.000000 -0.000000 -2.155120 92.911900 -1.115770 89.826000 2.612840 2.702490 15.735700 0.000005 -0.000001 93.053600 87.116100 -92.260500 8.984550 -0.406207 -0.000000 -2.007630 0.239556 1.590040 16.377300 -0.000001 -0.000001 3.772040 -3.414850 1.740190 6.456720 -0.000001 -0.000000 7.048680 -3.858330 -3.719060 12.994200 -0.242716 4.980390 -89.396200 -1.947040 -72.768000 5.348090 -0.000007 -0.000001 -82.027800 -31.907600 -72.932300 24.328600 0.000019 0.000005 7.001030 -2.403990 -108.859000 22.291600 -0.000001 0.000005 16.444700 5.538620 -8.180180 12.994500 -0.242716 -4.980390 87.682400 7.454010 -72.673700 -5.348130 -0.000001 -0.000004 -63.943700 39.889700 -9.831470 -24.328900 0.000322 -0.000009 3.431310 9.733250 -19.533100 -22.291500 -0.000108 -0.000004 6.697630 5.352570 -1.454620 -2.192480 -6.469440 -0.000000 -176.595000 -5.062840 -1.934120 39.081100 -0.000007 -0.000012 -0.057728 0.193379 16.621600 40.985400 -0.000006 -0.000013 -0.755941 6.648260 -62.295100 11.754300 -0.000000 0.000003 -0.000003 -0.000041 -16.579100 -2.192510 6.469440 -0.000001 179.748000 11.464000 -179.943000 -39.081100 -0.002282 -0.040193 -0.054084 0.207343 15.477600 -40.985400 0.000008 0.000006 1.907500 3.875000 -63.303100 -11.754300 -0.000006 -0.000006 -0.006265 -0.073221 -19.553300
0.000000 0.000000 0.000000 0.000000 0.000000 -0.000000 -2.132940 92.912700 -1.138930 89.808500 2.403340 2.745420 15.735700 0.000005 -0.000001 93.276800 87.099700 -92.493800 8.984550 -0.406207 -0.000000 -1.976260 0.264927 1.570340 16.377300 -0.000001 -0.000001 3.768520 -3.360650 1.718090 6.456720 -0.000001 -0.000000 7.066800 -3.783980 -3.756860 12.994200 -0.242716 4.980390 -89.399600 -1.929090 -72.707800 5.348090 -0.000007 -0.000001 -81.923000 -32.136200 -73.052100 24.328600 0.000019 0.000005 7.033200 -2.441360 -109.049000 22.291600 -0.000001 0.000005 16.467100 5.537070 -8.110040 12.994500 -0.242716 -4.980390 87.691700 7.430490 -72.687900 -5.348130 -0.000001 -0.000004 -64.040300 39.873500 -9.846110 -24.328900 0.000322 -0.000009 3.438410 9.714210 -19.605600 -22.291500 -0.000108 -0.000004 6.647670 5.353410 -1.479980 -2.192480 -6.469440 -0.000000 -176.593000 -5.088810 -1.887170 39.081100 -0.000007 -0.000012 -0.058417 0.195503 16.636400 40.985400 -0.000006 -0.000013 -0.769466 6.470790 -62.307700 11.754300 -0.000000 0.000003 -0.000002 -0.000029 -16.578600 -2.192510 6.469440 -0.000001 179.737000 11.382100 -179.942000 -39.081100 -0.002282 -0.040193 -0.054191 0.207456 15.496800 -40.985400 0.000008 0.000006 1.911690 4.006690 -63.279200 -11.754300 -0.000006 -0.000006 -0.006411 -0.074527 -19.606600
0.000000 0.000000 0.000000 0.000000 0.000000 -0.000000 -2.121620 92.916500 -1.159200 89.795700 2.233670 2.783710 15.735700 0.000005 -0.000001 93.358400 87.084400 -92.594100 8.984550 -0.406207 -0.000000 -1.946240 0.276749 1.533200 16.377300 -0.000001 -0.000001 3.795620 -3.330550 1.707280 6.456720 -0.000001 -0.000000 7.069950 -3.772070 -3.803210 12.994200 -0.242716 4.980390 -89.397100 -1.933200 -72.674000 5.348090 -0.000007 -0.000001 -81.779900 -32.426500 -73.124900 24.328600 0.000019 0.000005 6.949290 -2.429680 -109.178000 22.291600 -0.000001 0.000005 16.412300 5.538090 -8.156080 12.994500 -0.242716 -4.980390 87.700300 7.405180 -72.693900 -5.348130 -0.000001 -0.000004 -64.105700 40.032800 -9.871510 -24.328900 0.000322 -0.000009 3.437350 9.624950 -19.766200 -22.291500 -0.000108 -0.000004 6.556100 5.352610 -1.455830 -2.192480 -6.469440 -0.000000 -176.591000 -5.175080 -1.835610 39.081100 -0.000007 -0.000012 -0.057602 0.192929 16.623700 40.985400 -0.000006 -0.000013 -0.768187 6.387670 -62.301700 11.754300 -0.000000 0.000003 -0.000003 -0.000040 -16.579100 -2.192510 6.469440 -0.000001 179.740000 11.290200 -179.925000 -39.081100 -0.002282 -0.040193 -0.054133 0.207460 15.481800 -40.985400 0.000008 0.000006 1.915830 4.070080 -63.243300 -11.754300 -0.000006 -0.000006 -0.006457 -0.074928 -19.622900
0.000000 0.000000 0.000000 0.000000 0.000000 -0.000000 -2.110490 92.919500 -1.192090 89.775300 2.017140 2.777760 15.735700 0.000005 -0.000001 93.481100 87.085800 -92.736300 8.984550 -0.406207 -0.000000 -1.949830 0.290674 1.494140 16.377300 -0.000001 -0.000001 3.844760 -3.255930 1.708500 6.456720 -0.000001 -0.000000 7.053190 -3.733330 -3.826530 12.994200 -0.242716 4.980390 -89.397200 -1.922050 -72.583800 5.348090 -0.000007 -0.000001 -81.619400 -32.744500 -73.169500 24.328600 0.000019 0.000005 6.913160 -2.425660 -109.243000 22.291600 -0.000001 0.000005 16.311800 5.537820 -8.143670 12.994500 -0.242716 -4.980390 87.700600 7.400640 -72.686200 -5.348130 -0.000001 -0.000004 -64.151800 40.187900 -9.910920 -24.328900 0.000322 -0.000009 3.432650 9.527790 -19.925000 -22.291500 -0.000108 -0.000004 6.532830 5.354540 -1.514030 -2.192480 -6.469440 -0.000000 -176.581000 -5.263680 -1.828390 39.081100 -0.000007 -0.000012 -0.057713 0.193351 16.619700 40.985400 -0.000006 -0.000013 -0.782456 6.249940 -62.302000 11.754300 -0.000000 0.000003 -0.000003 -0.000039 -16.579000 -2.192510 6.469440 -0.000001 179.750000 11.285400 -179.959000 -39.081100 -0.002282 -0.040193 -0.053370 0.204846 15.471600 -40.985400 0.000008 0.000006 1.936370 4.227460 -63.207900 -11.754300 -0.000006 -0.000006 -0.006417 -0.074576 -19.608600
0.000000 0.000000 0.000000 0.000000 0.000000 -0.000000 -2.107570 92.916900 -1.222510 89.753400 1.791610 2.802570 15.735700 0.000005 -0.000001 93.626300 87.069200 -92.900700 8.984550 -0.406207 -0.000000 -1.917660 0.309351 1.455980 16.377300 -0.000001 -0.000001 3.848860 -3.194960 1.681480 6.456720 -0.000001 -0.000000 7.132330 -3.704870 -3.839640 12.994200 -0.242716 4.980390 -89.397700 -1.912170 -72.513100 5.348090 -0.000007 -0.000001 -81.312800 -33.070100 -72.963900 24.328600 0.000019 0.000005 6.905600 -2.412500 -109.166000 22.291600 -0.000001 0.000005 16.355800 5.536840 -8.099520 12.994500 -0.242716 -4.980390 87.703700 7.401540 -72.709700 -5.348130 -0.000001 -0.000004 -64.238300 40.167400 -9.930240 -24.328900 0.000322 -0.000009 3.424700 9.418520 -20.092700 -22.291500 -0.000108 -0.000004 6.534230 5.354890 -1.524370 -2.192480 -6.469440 -0.000000 -176.559000 -5.349390 -1.828160 39.081100 -0.000007 -0.000012 -0.057972 0.193535 16.675100 40.985400 -0.000006 -0.000013 -0.796282 6.137340 -62.324400 11.754300 -0.000000 0.000003 -0.000002 -0.000030 -16.578700 -2.192510 6.469440 -0.000001 179.769000 11.114700 179.993000 -39.081100 -0.002282 -0.040193 -0.054690 0.208790 15.529600 -40.985400 0.000008 0.000006 1.942870 4.286470 -63.194500 -11.754300 -0.000006 -0.000006 -0.006725 -0.077287 -19.719200
0.000000 0.000000 0.000000 0.000000 0.000000 -0.000000 -2.095510 92.918200 -1.244530 89.717700 1.610160 2.821820 15.735700 0.000005 -0.000001 94.039100 87.058000 -93.330300 8.984550 -0.406207 -0.000000 -1.898450 0.354588 1.423070 16.377300 -0.000001 -0.000001 3.893900 -3.141500 1.682530 6.456720 -0.000001 -0.000000 7.186520 -3.672420 -3.833780 12.994200 -0.242716 4.980390 -89.391200 -1.921960 -72.420400 5.348090 -0.000007 -0.000001 -80.774900 -33.162500 -72.196900 24.328600 0.000019 0.000005 6.876350 -2.375100 -108.965000 22.291600 -0.000001 0.000005 16.522100 5.538900 -8.192910 12.994500 -0.242716 -4.980390 87.683700 7.434420 -72.640500 -5.348130 -0.000001 -0.000004 -64.294100 40.181700 -9.931540 -24.328900 0.000322 -0.000009 3.442610 9.409970 -20.206300 -22.291500 -0.000108 -0.000004 6.672660 5.355970 -1.557280 -2.192480 -6.469440 -0.000000 -176.527000 -5.494670 -1.812670 39.081100 -0.000007 -0.000012 -0.058147 0.193731 16.706600 40.985400 -0.000006 -0.000013 -0.792340 6.077860 -62.343500 11.754300 -0.000000 0.000003 -0.000002 -0.000025 -16.578500 -2.192510 6.469440 -0.000001 179.799000 10.915000 179.984000 -39.081100 -0.002282 -0.040193 -0.053933 0.206228 15.518200 -40.985400 0.000008 0.000006 1.946810 4.379040 -63.157100 -11.754300 -0.000006 -0.000006 -0.006687 -0.076954 -19.705600
0.000000 0.000000 0.000000 0.000000 0.000000 -0.000000 -2.082210 92.916000 -1.245150 89.725400 1.402890 2.871120 15.735700 0.000005 -0.000001 94.234100 87.033800 -93.550800 8.984550 -0.406207 -0.000000 -1.851800 0.380548 1.372550 16.377300 -0.000001 -0.000001 3.814850 -3.044260 1.688430 6.456720 -0.000001 -0.000000 7.354180 -3.551450 -3.861480 12.994200 -0.242716 4.980390 -89.376200 -1.973350 -72.453700 5.348090 -0.000007 -0.000001 -79.516100 -33.483100 -70.189200 24.328600 0.000019 0.000005 6.503940 -2.255950 -109.049000 22.291600 -0.000001 0.000005 16.913500 5.536650 -8.091240 12.994500 -0.242716 -4.980390 87.670400 7.464270 -72.612000 -5.348130 -0.000001 -0.000004 -64.304600 40.280100 -10.011900 -24.328900 0.000322 -0.000009 3.445610 9.414540 -20.213500 -22.291500 -0.000108 -0.000004 6.659130 5.357140 -1.592780 -2.192480 -6.469440 -0.000000 -176.538000 -5.564300 -1.734700 39.081100 -0.000007 -0.000012 -0.058706 0.195606 16.705700 40.985400 -0.000006 -0.000013 -0.801168 5.966090 -62.363100 11.754300 -0.000000 0.000003 -0.000002 -0.000029 -16.578600 -2.192510 6.469440 -0.000001 179.795000 10.775300 -179.997000 -39.081100 -0.002282 -0.040193 -0.052234 0.199544 15.559800 -40.985400 0.000008 0.000006 1.950520 4.367810 -63.168600 -11.754300 -0.000006 -0.000006 -0.006810 -0.078022 -19.749200
